<mxfile host="app.diagrams.net" modified="2023-08-24T16:12:21.159Z" agent="Mozilla/5.0 (Windows NT 10.0; Win64; x64; rv:109.0) Gecko/20100101 Firefox/116.0" etag="fWboyN9i3CR4k75UmwBH" version="21.6.9" type="google">
  <diagram name="PÃ¡gina-1" id="NeOEHBDp1i0i-224j3CI">
    <mxGraphModel grid="1" page="0" gridSize="10" guides="1" tooltips="1" connect="1" arrows="1" fold="1" pageScale="1" pageWidth="827" pageHeight="1169" math="0" shadow="0">
      <root>
        <mxCell id="0" />
        <mxCell id="1" parent="0" />
        <mxCell id="YanaTZ1xeVYavNI_SIYM-42" value="" style="rounded=0;whiteSpace=wrap;html=1;fontSize=16;" vertex="1" parent="1">
          <mxGeometry x="800" y="596" width="160" height="44" as="geometry" />
        </mxCell>
        <mxCell id="YanaTZ1xeVYavNI_SIYM-1" value=":&lt;u&gt;Sistema&lt;/u&gt;" style="rounded=0;whiteSpace=wrap;html=1;fontSize=16;" vertex="1" parent="1">
          <mxGeometry x="-160" y="46" width="120" height="44" as="geometry" />
        </mxCell>
        <mxCell id="YanaTZ1xeVYavNI_SIYM-2" value="" style="endArrow=none;html=1;rounded=0;fontSize=12;startSize=8;endSize=8;curved=1;entryX=0;entryY=0.5;entryDx=0;entryDy=0;" edge="1" parent="1" target="YanaTZ1xeVYavNI_SIYM-1">
          <mxGeometry width="50" height="50" relative="1" as="geometry">
            <mxPoint x="-630" y="68" as="sourcePoint" />
            <mxPoint x="-10" y="-54" as="targetPoint" />
          </mxGeometry>
        </mxCell>
        <mxCell id="YanaTZ1xeVYavNI_SIYM-3" value="seleccionarActividad(nombreAct: String)" style="text;html=1;strokeColor=none;fillColor=none;align=center;verticalAlign=middle;whiteSpace=wrap;rounded=0;fontSize=16;" vertex="1" parent="1">
          <mxGeometry x="-590" y="40" width="420" height="30" as="geometry" />
        </mxCell>
        <mxCell id="YanaTZ1xeVYavNI_SIYM-4" value="" style="endArrow=classic;html=1;rounded=0;fontSize=12;startSize=8;endSize=8;curved=1;" edge="1" parent="1">
          <mxGeometry width="50" height="50" relative="1" as="geometry">
            <mxPoint x="-410" y="40" as="sourcePoint" />
            <mxPoint x="-350" y="40" as="targetPoint" />
          </mxGeometry>
        </mxCell>
        <mxCell id="YanaTZ1xeVYavNI_SIYM-5" value="d:&lt;u&gt;Departamento&lt;/u&gt;" style="rounded=0;whiteSpace=wrap;html=1;fontSize=16;" vertex="1" parent="1">
          <mxGeometry x="360" y="46" width="120" height="44" as="geometry" />
        </mxCell>
        <mxCell id="YanaTZ1xeVYavNI_SIYM-6" value="" style="endArrow=none;html=1;rounded=0;fontSize=12;startSize=8;endSize=8;curved=1;exitX=1;exitY=0.5;exitDx=0;exitDy=0;entryX=0;entryY=0.5;entryDx=0;entryDy=0;" edge="1" parent="1" source="YanaTZ1xeVYavNI_SIYM-1" target="YanaTZ1xeVYavNI_SIYM-5">
          <mxGeometry width="50" height="50" relative="1" as="geometry">
            <mxPoint x="210" y="-54" as="sourcePoint" />
            <mxPoint x="260" y="-104" as="targetPoint" />
          </mxGeometry>
        </mxCell>
        <mxCell id="YanaTZ1xeVYavNI_SIYM-7" value="1: seleccActividad(nombreAct): ActividadTuristica" style="text;html=1;strokeColor=none;fillColor=none;align=center;verticalAlign=middle;whiteSpace=wrap;rounded=0;fontSize=16;" vertex="1" parent="1">
          <mxGeometry x="-55" y="40" width="420" height="30" as="geometry" />
        </mxCell>
        <mxCell id="YanaTZ1xeVYavNI_SIYM-8" value="" style="endArrow=classic;html=1;rounded=0;fontSize=12;startSize=8;endSize=8;curved=1;" edge="1" parent="1">
          <mxGeometry width="50" height="50" relative="1" as="geometry">
            <mxPoint x="125" y="40" as="sourcePoint" />
            <mxPoint x="185" y="40" as="targetPoint" />
          </mxGeometry>
        </mxCell>
        <mxCell id="YanaTZ1xeVYavNI_SIYM-9" value="" style="rounded=0;whiteSpace=wrap;html=1;fontSize=16;" vertex="1" parent="1">
          <mxGeometry x="750" y="56.80000000000001" width="160" height="44" as="geometry" />
        </mxCell>
        <mxCell id="YanaTZ1xeVYavNI_SIYM-10" value=":&lt;u&gt;ActividadTuristica&lt;/u&gt;" style="rounded=0;whiteSpace=wrap;html=1;fontSize=16;" vertex="1" parent="1">
          <mxGeometry x="740" y="46.80000000000001" width="160" height="44" as="geometry" />
        </mxCell>
        <mxCell id="YanaTZ1xeVYavNI_SIYM-11" value="" style="endArrow=none;html=1;rounded=0;fontSize=12;startSize=8;endSize=8;curved=1;exitX=1;exitY=0.5;exitDx=0;exitDy=0;entryX=0;entryY=0.5;entryDx=0;entryDy=0;" edge="1" parent="1" source="YanaTZ1xeVYavNI_SIYM-5" target="YanaTZ1xeVYavNI_SIYM-10">
          <mxGeometry width="50" height="50" relative="1" as="geometry">
            <mxPoint x="490" y="68.80000000000001" as="sourcePoint" />
            <mxPoint x="640" y="-63.19999999999999" as="targetPoint" />
          </mxGeometry>
        </mxCell>
        <mxCell id="YanaTZ1xeVYavNI_SIYM-12" value="1.1: at := find(nombreAct)" style="text;html=1;strokeColor=none;fillColor=none;align=center;verticalAlign=middle;whiteSpace=wrap;rounded=0;fontSize=16;" vertex="1" parent="1">
          <mxGeometry x="500" y="40" width="230" height="30" as="geometry" />
        </mxCell>
        <mxCell id="YanaTZ1xeVYavNI_SIYM-13" value="" style="endArrow=classic;html=1;rounded=0;fontSize=12;startSize=8;endSize=8;curved=1;" edge="1" parent="1">
          <mxGeometry width="50" height="50" relative="1" as="geometry">
            <mxPoint x="600" y="40" as="sourcePoint" />
            <mxPoint x="660" y="40" as="targetPoint" />
          </mxGeometry>
        </mxCell>
        <mxCell id="YanaTZ1xeVYavNI_SIYM-14" value="at:&lt;u&gt;ActividadTuristica&lt;/u&gt;" style="rounded=0;whiteSpace=wrap;html=1;fontSize=16;" vertex="1" parent="1">
          <mxGeometry x="740" y="230" width="160" height="44" as="geometry" />
        </mxCell>
        <mxCell id="YanaTZ1xeVYavNI_SIYM-15" value="" style="endArrow=none;html=1;rounded=0;fontSize=12;startSize=8;endSize=8;entryX=0.922;entryY=1;entryDx=0;entryDy=0;entryPerimeter=0;exitX=0;exitY=0.5;exitDx=0;exitDy=0;" edge="1" parent="1" source="YanaTZ1xeVYavNI_SIYM-14" target="YanaTZ1xeVYavNI_SIYM-5">
          <mxGeometry width="50" height="50" relative="1" as="geometry">
            <mxPoint x="730" y="250" as="sourcePoint" />
            <mxPoint x="720" y="140" as="targetPoint" />
            <Array as="points">
              <mxPoint x="470" y="252" />
            </Array>
          </mxGeometry>
        </mxCell>
        <mxCell id="YanaTZ1xeVYavNI_SIYM-16" value="1.2: verSalidas()" style="text;html=1;strokeColor=none;fillColor=none;align=center;verticalAlign=middle;whiteSpace=wrap;rounded=0;fontSize=16;" vertex="1" parent="1">
          <mxGeometry x="480" y="224" width="260" height="30" as="geometry" />
        </mxCell>
        <mxCell id="YanaTZ1xeVYavNI_SIYM-17" value="El sistema recuerda la actividad at" style="shape=note;size=20;whiteSpace=wrap;html=1;fontSize=16;" vertex="1" parent="1">
          <mxGeometry x="480" y="-140" width="100" height="100" as="geometry" />
        </mxCell>
        <mxCell id="YanaTZ1xeVYavNI_SIYM-18" value="" style="endArrow=none;dashed=1;html=1;rounded=0;fontSize=12;startSize=8;endSize=8;curved=1;exitX=0.833;exitY=0.091;exitDx=0;exitDy=0;exitPerimeter=0;entryX=0.346;entryY=1.032;entryDx=0;entryDy=0;entryPerimeter=0;" edge="1" parent="1" source="YanaTZ1xeVYavNI_SIYM-5" target="YanaTZ1xeVYavNI_SIYM-17">
          <mxGeometry width="50" height="50" relative="1" as="geometry">
            <mxPoint x="490" as="sourcePoint" />
            <mxPoint x="540" y="-50" as="targetPoint" />
          </mxGeometry>
        </mxCell>
        <mxCell id="YanaTZ1xeVYavNI_SIYM-20" value="" style="rounded=0;whiteSpace=wrap;html=1;fontSize=16;" vertex="1" parent="1">
          <mxGeometry x="1300" y="239" width="160" height="44" as="geometry" />
        </mxCell>
        <mxCell id="YanaTZ1xeVYavNI_SIYM-21" value=":&lt;u&gt;SalidaTuristica&lt;/u&gt;" style="rounded=0;whiteSpace=wrap;html=1;fontSize=16;" vertex="1" parent="1">
          <mxGeometry x="1290" y="229" width="160" height="44" as="geometry" />
        </mxCell>
        <mxCell id="YanaTZ1xeVYavNI_SIYM-22" value="" style="endArrow=none;html=1;rounded=0;fontSize=12;startSize=8;endSize=8;curved=1;exitX=1;exitY=0.5;exitDx=0;exitDy=0;entryX=0;entryY=0.5;entryDx=0;entryDy=0;" edge="1" parent="1" source="YanaTZ1xeVYavNI_SIYM-14" target="YanaTZ1xeVYavNI_SIYM-21">
          <mxGeometry width="50" height="50" relative="1" as="geometry">
            <mxPoint x="940" y="251" as="sourcePoint" />
            <mxPoint x="1210" y="159" as="targetPoint" />
          </mxGeometry>
        </mxCell>
        <mxCell id="YanaTZ1xeVYavNI_SIYM-23" value="1.2.1*[for each]: st := next()" style="text;html=1;strokeColor=none;fillColor=none;align=center;verticalAlign=middle;whiteSpace=wrap;rounded=0;fontSize=16;" vertex="1" parent="1">
          <mxGeometry x="959" y="224" width="310" height="30" as="geometry" />
        </mxCell>
        <mxCell id="YanaTZ1xeVYavNI_SIYM-24" value="st:&lt;u&gt;SalidaTuristica&lt;/u&gt;" style="rounded=0;whiteSpace=wrap;html=1;fontSize=16;" vertex="1" parent="1">
          <mxGeometry x="1290" y="369" width="160" height="44" as="geometry" />
        </mxCell>
        <mxCell id="YanaTZ1xeVYavNI_SIYM-25" value="1.2.2*:printNombre()" style="text;html=1;strokeColor=none;fillColor=none;align=center;verticalAlign=middle;whiteSpace=wrap;rounded=0;fontSize=16;" vertex="1" parent="1">
          <mxGeometry x="950" y="363" width="320" height="30" as="geometry" />
        </mxCell>
        <mxCell id="YanaTZ1xeVYavNI_SIYM-26" value="" style="endArrow=classic;html=1;rounded=0;fontSize=12;startSize=8;endSize=8;curved=1;" edge="1" parent="1">
          <mxGeometry width="50" height="50" relative="1" as="geometry">
            <mxPoint x="1084" y="228.20000000000005" as="sourcePoint" />
            <mxPoint x="1144" y="228.20000000000005" as="targetPoint" />
          </mxGeometry>
        </mxCell>
        <mxCell id="YanaTZ1xeVYavNI_SIYM-27" value="" style="endArrow=classic;html=1;rounded=0;fontSize=12;startSize=8;endSize=8;curved=1;" edge="1" parent="1">
          <mxGeometry width="50" height="50" relative="1" as="geometry">
            <mxPoint x="1095" y="363" as="sourcePoint" />
            <mxPoint x="1155" y="363" as="targetPoint" />
          </mxGeometry>
        </mxCell>
        <mxCell id="YanaTZ1xeVYavNI_SIYM-28" value="" style="endArrow=none;html=1;rounded=0;fontSize=12;startSize=8;endSize=8;exitX=0.881;exitY=1.036;exitDx=0;exitDy=0;exitPerimeter=0;entryX=0;entryY=0.5;entryDx=0;entryDy=0;" edge="1" parent="1" source="YanaTZ1xeVYavNI_SIYM-14" target="YanaTZ1xeVYavNI_SIYM-24">
          <mxGeometry width="50" height="50" relative="1" as="geometry">
            <mxPoint x="1020" y="380" as="sourcePoint" />
            <mxPoint x="880" y="350" as="targetPoint" />
            <Array as="points">
              <mxPoint x="881" y="390" />
            </Array>
          </mxGeometry>
        </mxCell>
        <mxCell id="YanaTZ1xeVYavNI_SIYM-29" value="Imprime los nombres de las salidas asociadas" style="shape=note;size=20;whiteSpace=wrap;html=1;fontSize=16;" vertex="1" parent="1">
          <mxGeometry x="650" y="337.5" width="110" height="107" as="geometry" />
        </mxCell>
        <mxCell id="YanaTZ1xeVYavNI_SIYM-30" value="" style="endArrow=none;dashed=1;html=1;rounded=0;fontSize=12;startSize=8;endSize=8;curved=1;entryX=0.356;entryY=1;entryDx=0;entryDy=0;entryPerimeter=0;exitX=0;exitY=0;exitDx=100;exitDy=10;exitPerimeter=0;" edge="1" parent="1" source="YanaTZ1xeVYavNI_SIYM-29" target="YanaTZ1xeVYavNI_SIYM-14">
          <mxGeometry width="50" height="50" relative="1" as="geometry">
            <mxPoint x="860" y="410" as="sourcePoint" />
            <mxPoint x="910" y="360" as="targetPoint" />
          </mxGeometry>
        </mxCell>
        <mxCell id="YanaTZ1xeVYavNI_SIYM-31" value=":&lt;u&gt;Sistema&lt;/u&gt;" style="rounded=0;whiteSpace=wrap;html=1;fontSize=16;" vertex="1" parent="1">
          <mxGeometry x="-160" y="586" width="120" height="44" as="geometry" />
        </mxCell>
        <mxCell id="YanaTZ1xeVYavNI_SIYM-32" value="" style="endArrow=none;html=1;rounded=0;fontSize=12;startSize=8;endSize=8;curved=1;entryX=0;entryY=0.5;entryDx=0;entryDy=0;" edge="1" parent="1" target="YanaTZ1xeVYavNI_SIYM-31">
          <mxGeometry width="50" height="50" relative="1" as="geometry">
            <mxPoint x="-630" y="608" as="sourcePoint" />
            <mxPoint x="-10" y="486" as="targetPoint" />
          </mxGeometry>
        </mxCell>
        <mxCell id="YanaTZ1xeVYavNI_SIYM-33" value="seleccionarSalida(nombreSal: String)" style="text;html=1;strokeColor=none;fillColor=none;align=center;verticalAlign=middle;whiteSpace=wrap;rounded=0;fontSize=16;" vertex="1" parent="1">
          <mxGeometry x="-590" y="580" width="420" height="30" as="geometry" />
        </mxCell>
        <mxCell id="YanaTZ1xeVYavNI_SIYM-34" value="" style="endArrow=classic;html=1;rounded=0;fontSize=12;startSize=8;endSize=8;curved=1;" edge="1" parent="1">
          <mxGeometry width="50" height="50" relative="1" as="geometry">
            <mxPoint x="-410" y="580" as="sourcePoint" />
            <mxPoint x="-350" y="580" as="targetPoint" />
          </mxGeometry>
        </mxCell>
        <mxCell id="YanaTZ1xeVYavNI_SIYM-35" value="at:&lt;u&gt;ActividadTuristica&lt;/u&gt;" style="rounded=0;whiteSpace=wrap;html=1;fontSize=16;" vertex="1" parent="1">
          <mxGeometry x="350" y="586" width="160" height="44" as="geometry" />
        </mxCell>
        <mxCell id="YanaTZ1xeVYavNI_SIYM-36" value="" style="endArrow=none;html=1;rounded=0;fontSize=12;startSize=8;endSize=8;curved=1;exitX=1;exitY=0.5;exitDx=0;exitDy=0;entryX=0;entryY=0.5;entryDx=0;entryDy=0;" edge="1" parent="1" source="YanaTZ1xeVYavNI_SIYM-31" target="YanaTZ1xeVYavNI_SIYM-35">
          <mxGeometry width="50" height="50" relative="1" as="geometry">
            <mxPoint x="270" y="460" as="sourcePoint" />
            <mxPoint x="320" y="410" as="targetPoint" />
          </mxGeometry>
        </mxCell>
        <mxCell id="YanaTZ1xeVYavNI_SIYM-37" value="1: printDataSalTur(nombreSal)" style="text;html=1;strokeColor=none;fillColor=none;align=center;verticalAlign=middle;whiteSpace=wrap;rounded=0;fontSize=16;" vertex="1" parent="1">
          <mxGeometry x="-40" y="580" width="380" height="30" as="geometry" />
        </mxCell>
        <mxCell id="YanaTZ1xeVYavNI_SIYM-38" value="" style="endArrow=classic;html=1;rounded=0;fontSize=12;startSize=8;endSize=8;curved=1;" edge="1" parent="1">
          <mxGeometry width="50" height="50" relative="1" as="geometry">
            <mxPoint x="140" y="580" as="sourcePoint" />
            <mxPoint x="200" y="580" as="targetPoint" />
          </mxGeometry>
        </mxCell>
        <mxCell id="YanaTZ1xeVYavNI_SIYM-39" value=":&lt;u&gt;SalidaTuristica&lt;/u&gt;" style="rounded=0;whiteSpace=wrap;html=1;fontSize=16;" vertex="1" parent="1">
          <mxGeometry x="790" y="586" width="160" height="44" as="geometry" />
        </mxCell>
        <mxCell id="YanaTZ1xeVYavNI_SIYM-41" value="" style="endArrow=none;html=1;rounded=0;fontSize=12;startSize=8;endSize=8;curved=1;exitX=1;exitY=0.5;exitDx=0;exitDy=0;entryX=0;entryY=0.5;entryDx=0;entryDy=0;" edge="1" parent="1" source="YanaTZ1xeVYavNI_SIYM-35" target="YanaTZ1xeVYavNI_SIYM-39">
          <mxGeometry width="50" height="50" relative="1" as="geometry">
            <mxPoint x="630" y="600" as="sourcePoint" />
            <mxPoint x="740" y="610" as="targetPoint" />
          </mxGeometry>
        </mxCell>
        <mxCell id="YanaTZ1xeVYavNI_SIYM-43" value="1.1: st := find(nombreSal)" style="text;html=1;strokeColor=none;fillColor=none;align=center;verticalAlign=middle;whiteSpace=wrap;rounded=0;fontSize=16;" vertex="1" parent="1">
          <mxGeometry x="520" y="580" width="290" height="30" as="geometry" />
        </mxCell>
        <mxCell id="YanaTZ1xeVYavNI_SIYM-44" value="st:&lt;u&gt;SalidaTuristica&lt;/u&gt;" style="rounded=0;whiteSpace=wrap;html=1;fontSize=16;" vertex="1" parent="1">
          <mxGeometry x="790" y="770" width="160" height="44" as="geometry" />
        </mxCell>
        <mxCell id="YanaTZ1xeVYavNI_SIYM-45" value="" style="endArrow=none;html=1;rounded=0;fontSize=12;startSize=8;endSize=8;exitX=0;exitY=0.5;exitDx=0;exitDy=0;entryX=0.899;entryY=1;entryDx=0;entryDy=0;entryPerimeter=0;" edge="1" parent="1" source="YanaTZ1xeVYavNI_SIYM-44" target="YanaTZ1xeVYavNI_SIYM-35">
          <mxGeometry width="50" height="50" relative="1" as="geometry">
            <mxPoint x="770" y="700" as="sourcePoint" />
            <mxPoint x="480" y="700" as="targetPoint" />
            <Array as="points">
              <mxPoint x="494" y="792" />
            </Array>
          </mxGeometry>
        </mxCell>
        <mxCell id="YanaTZ1xeVYavNI_SIYM-46" value="1.2: printDataSalidaTuristica()" style="text;html=1;strokeColor=none;fillColor=none;align=center;verticalAlign=middle;whiteSpace=wrap;rounded=0;fontSize=16;" vertex="1" parent="1">
          <mxGeometry x="520" y="760" width="250" height="30" as="geometry" />
        </mxCell>
        <mxCell id="YanaTZ1xeVYavNI_SIYM-48" value="" style="endArrow=classic;html=1;rounded=0;fontSize=12;startSize=8;endSize=8;curved=1;" edge="1" parent="1">
          <mxGeometry width="50" height="50" relative="1" as="geometry">
            <mxPoint x="630" y="582" as="sourcePoint" />
            <mxPoint x="690" y="582" as="targetPoint" />
          </mxGeometry>
        </mxCell>
        <mxCell id="YanaTZ1xeVYavNI_SIYM-49" value="" style="endArrow=classic;html=1;rounded=0;fontSize=12;startSize=8;endSize=8;curved=1;" edge="1" parent="1">
          <mxGeometry width="50" height="50" relative="1" as="geometry">
            <mxPoint x="633" y="762" as="sourcePoint" />
            <mxPoint x="693" y="762" as="targetPoint" />
          </mxGeometry>
        </mxCell>
      </root>
    </mxGraphModel>
  </diagram>
</mxfile>
